<svg xmlns="http://www.w3.org/2000/svg" x="0px" y="0px" viewBox="0 0 52 20">
  <path d="M43.4,11.1l7.9-10.7H35.5L43.4,11.1z"/>
  <path d="M49.6,0.4L35.5,19.6h1.6L51.3,0.4H49.6z"/>
  <path d="M37.1,0.4l14.2,19.3h-1.6L35.5,0.4H37.1z"/>
  <path d="M36.8,0.4h-1.3v19.3h1.3L36.8,0.4z"/>
  <path d="M49.8 18.3v1.3H35.5v-1.3H49.8zM43.4 11.1l7.9-10.7H35.5L43.4 11.1zM.7 19.5h11.9v-2.4H5.7l5.5-7c.8-1.1 1.3-2.4 1.4-3.8 0-3.1-2.5-5.6-5.6-5.6 0 0-.1 0-.1 0C3.7.6 1 3 .9 6.1c0 .1 0 .3 0 .4h2.3c0-2 1.6-3.6 3.5-3.6 1.9 0 3.4 1.6 3.4 3.4-.1 1.2-.6 2.4-1.4 3.3L.7 19.5zM23.1 17.4c-1.4 0-3.3-.6-3.5-2.6h-2.7c.2 3 3.1 4.8 6 4.8 3.5 0 6.3-2 6.3-5.5 0-.4.1-3.6-2.8-4.9 1.5-.8 2.4-2.4 2.3-4.1 0-3.1-2.8-4.9-5.3-4.9-3-.2-5.7 2-6.1 5h2.4c.2-1.8 1.8-3 3.5-3 1.7-.2 3.2 1.1 3.3 2.7 0 .1 0 .1 0 .2 0 1.5-1.1 3.1-3.7 3.1l0 2.1c1.2 0 4.1.5 4.1 3.2C26.9 15.8 25.2 17.5 23.1 17.4 23.1 17.4 23.1 17.4 23.1 17.4z"/>
</svg>