<svg xmlns="http://www.w3.org/2000/svg" id="Layer" x="0px" y="0px" version="1.1" viewBox="0 0 180 12" xml:space="preserve">
  <style>
    .st0{fill:#231815}
  </style>
  <path d="M6.4 2c-.7 0-1.4.2-2 .5C3.8 2.9 3.3 3.4 3 4 2.6 4.6 2.5 5.3 2.5 6c0 1 .4 2 1.1 2.8.7.7 1.7 1.1 2.8 1.1.7 0 1.4-.2 2-.5C8.9 9 9.4 8.5 9.8 7.9c.3-.6.5-1.3.5-2 0-.7-.2-1.4-.5-2C9.4 3.3 8.9 2.9 8.3 2.5 7.7 2.2 7.1 2 6.4 2M6.3 1.1c1.3 0 2.6.5 3.5 1.4.9.9 1.5 2.2 1.4 3.5 0 1.3-.5 2.6-1.4 3.5-.9.9-2.2 1.5-3.5 1.4-1.3 0-2.6-.5-3.5-1.4C2 8.5 1.5 7.3 1.5 6c0-.9.2-1.7.7-2.5.4-.7 1-1.4 1.8-1.8C4.7 1.3 5.5 1.1 6.3 1.1M14.7 10.6V1.4h.2l6.2 7.1V1.9L22 1.4v9.2h-.3l-6.1-7V10L14.7 10.6zM25.2 1.4h.9L28 8l2.6-6.6h.2L33.5 8l2-6.6h.9l-2.6 9.2h-.2l-2.8-7-2.8 7h-.1L25.2 1.4zM42.1 3.3l-2 4.3h4L42.1 3.3zM42.2 1.4l4.3 9.2h-1l-1-2.2h-4.9l-1.1 2.2h-1L42 1.4H42.2zM53.2 5.5c.3-.1.6-.3.7-.6.2-.3.2-.6.3-1 0-.3 0-.6-.1-.9-.1-.3-.4-.5-.7-.7-.5-.1-1-.2-1.4-.2h-1.6V6C51.3 5.9 52.2 5.8 53.2 5.5M49.3 1.4h1.8c.7 0 1.4 0 2.1.1.5.1 1 .4 1.3.9.3.5.5 1 .5 1.6 0 .5-.1 1.1-.4 1.6-.3.5-.8.8-1.4.9-.3.1-1.1.2-1.1.2l3.1 4h-1.1l-2.9-3.8L50.2 7v3.7h-.9V1.4zM59.8 9.7h.9c.9.1 1.8 0 2.7-.3.7-.2 1.3-.6 1.6-1.2.4-.6.6-1.4.6-2.2 0-.8-.2-1.6-.7-2.3-.4-.6-1.1-1.1-1.8-1.3-.9-.2-1.9-.3-2.9-.3h-.5L59.8 9.7 59.8 9.7zM58.8 10.6V1.4h1.9c1 0 2 .1 3 .3.9.3 1.6.9 2.1 1.6.5.8.8 1.8.8 2.8 0 .8-.2 1.7-.6 2.4-.3.7-.9 1.2-1.6 1.6-.8.4-1.8.6-2.7.5H58.8zM81.9 3.1l-.7.6c-.4-.5-.9-.9-1.4-1.2-.6-.3-1.2-.4-1.8-.4-.7 0-1.4.2-2 .5-.6.3-1.1.8-1.4 1.4-.3.6-.5 1.3-.5 2 0 1.1.4 2.1 1.2 2.8.8.8 1.9 1.2 2.9 1.1 1.3 0 2.5-.5 3.3-1.5L82 9c-.5.6-1 1.1-1.7 1.4-.7.3-1.5.5-2.3.5-1.5.1-2.9-.5-3.8-1.6C73.5 8.3 73 7.2 73.1 6c0-1.3.5-2.5 1.4-3.4.9-.9 2.2-1.4 3.5-1.4.8 0 1.6.2 2.4.5C81 2 81.5 2.5 81.9 3.1M88.8 5.5c.3-.1.6-.3.7-.6.2-.3.2-.6.3-1 0-.3 0-.6-.1-.9-.1-.3-.4-.5-.7-.7-.5-.1-1-.2-1.4-.2h-1.6V6C86.9 5.9 87.8 5.8 88.8 5.5M84.9 1.4h1.8c.7 0 1.4 0 2.1.1.5.1 1 .4 1.3.9.3.5.5 1 .5 1.6 0 .5-.1 1.1-.4 1.6-.3.5-.9.8-1.4 1-.3.1-1.1.2-1.1.2l3.1 4h-1.1l-2.9-3.9L85.8 7v3.7h-.9V1.4zM98.4 2c-.7 0-1.4.2-2 .5-.6.3-1.1.8-1.4 1.4-.3.6-.5 1.3-.5 2 0 1 .4 2 1.1 2.8.7.7 1.7 1.1 2.8 1.1.7 0 1.4-.2 2-.5.6-.3 1.1-.8 1.4-1.4.3-.6.5-1.3.5-2 0-.7-.2-1.4-.5-2-.4-.6-.9-1.1-1.4-1.4C99.7 2.2 99 2 98.4 2M98.3 1.1c1.3 0 2.6.5 3.5 1.4.9.9 1.5 2.2 1.4 3.5 0 1.3-.5 2.6-1.4 3.5-.9.9-2.2 1.5-3.5 1.4-1.3 0-2.6-.5-3.5-1.4C94 8.5 93.4 7.3 93.4 6c0-.9.2-1.7.7-2.5.4-.7 1-1.4 1.8-1.8C96.6 1.3 97.4 1.1 98.3 1.1M105.6 8.8l.8-.5c.5 1 1.2 1.5 1.9 1.5.3 0 .6-.1.9-.2.3-.1.5-.3.6-.6.1-.2.2-.5.2-.8 0-.3-.1-.6-.3-.9-.4-.6-1-1.1-1.6-1.5-.5-.4-1-.8-1.4-1.2-.3-.4-.5-.9-.5-1.4 0-.4.1-.8.3-1.1.2-.3.5-.6.8-.8.3-.2.7-.3 1.1-.3.4 0 .9.1 1.2.3.5.3.9.7 1.2 1.2L110 3.1c-.2-.4-.5-.7-.9-.9-.2-.1-.5-.2-.8-.2-.3 0-.7.1-.9.3-.2.2-.4.5-.3.9 0 .2.1.4.1.6.1.2.3.4.5.6.4.3.8.6 1.2.9.6.4 1.2 1 1.6 1.6.3.4.5.9.5 1.4 0 .7-.3 1.3-.8 1.8-.9.9-2.3 1-3.3.3C106.3 9.9 105.9 9.4 105.6 8.8M113.7 8.8l.8-.5c.5 1 1.2 1.5 1.9 1.5.3 0 .6-.1.9-.2.3-.1.5-.3.6-.6.1-.2.2-.5.2-.8 0-.3-.1-.6-.3-.9-.4-.6-1-1.1-1.6-1.5-.5-.4-1-.8-1.4-1.2-.3-.4-.5-.9-.5-1.4 0-.4.1-.8.3-1.1.2-.3.5-.6.8-.8.3-.2.7-.3 1.1-.3.4 0 .9.1 1.2.3.5.3.9.7 1.2 1.2l-.6.7c-.2-.4-.5-.7-.9-.9-.2-.1-.5-.2-.8-.2-.3 0-.7.1-.9.3-.2.2-.4.5-.3.9 0 .2.1.4.1.6.1.2.3.4.5.6.4.3.8.6 1.2.9.6.4 1.2 1 1.6 1.6.3.4.5.9.5 1.4 0 .7-.3 1.3-.8 1.8-.9.9-2.3 1-3.3.3C114.4 10 114 9.5 113.7 8.8M122.7 1.4h4.9v.9h-3.9v3.3h2.9v.9h-2.9v3.3h3.8v.9h-4.8V1.4zM130.8 2.2V1.4h6.2v.9h-2.6V10l-1 .6V2.2H130.8zM153 1.2l-3.3 6.9-3.4-6.9h-.6l-1.4 9.4h1.4l.8-5.7 2.8 5.7h.6l2.8-5.6.8 5.6h1.4l-1.4-9.4H153zM163.8 7.3h-3l1.5-3.2L163.8 7.3zM162 1.2l-4.5 9.4h1.6l1-2.3h4.1l1.1 2.3h1.6l-4.4-9.4L162 1.2 162 1.2zM174.1 5.9l.7 1.4h2.1c-.1.6-.5 1.1-1 1.5-.6.5-1.3.7-2.1.7-.7 0-1.3-.1-1.9-.5-.6-.3-1-.8-1.4-1.3C170.1 7.3 170 6.7 170 6c0-.6.1-1.2.5-1.7 1-1.6 3.1-2.3 4.9-1.4.6.3 1.1.6 1.5 1l.2.2 1.1-1-.2-.2c-.6-.6-1.3-1-2-1.4-.7-.3-1.5-.4-2.2-.4-.9 0-1.8.2-2.6.7-.7.4-1.4 1-1.8 1.8-.4.8-.7 1.6-.7 2.5 0 1.2.4 2.3 1.2 3.1 1 1.2 2.5 1.8 4.1 1.8 1.3.1 2.5-.4 3.4-1.3.9-.9 1.4-2.2 1.3-3.5V5.9H174.1L174.1 5.9z" class="st0"/>
</svg>